<svg width="85" height="84" viewBox="0 0 85 84" fill="none" xmlns="http://www.w3.org/2000/svg">
<path fill-rule="evenodd" clip-rule="evenodd" d="M34.0691 0.000586969C35.3543 0.000586969 36.6225 0.0735235 37.8706 0.212924V3.58855C37.8718 3.58855 35.3373 3.35445 34.0691 3.35445C17.1057 3.35445 3.35445 17.1063 3.35445 34.0697C3.35445 51.0325 17.1052 64.785 34.0691 64.785C35.3579 64.785 36.6278 64.705 37.8741 64.5503L37.8706 67.9271C36.6225 68.0659 35.3543 68.1395 34.0691 68.1395C15.2529 68.1395 0 52.8859 0 34.0703C0 15.2529 15.2535 0 34.0691 0V0.000586969Z" fill="#F58634"/>
<path fill-rule="evenodd" clip-rule="evenodd" d="M34.0693 6.62425C35.3592 6.62425 36.6279 6.71541 37.8708 6.88775V10.2316L37.8878 10.2351C36.6438 10.0334 35.3698 9.92811 34.0693 9.92811C20.8356 9.92811 10.107 20.7367 10.107 34.0692C10.107 47.4017 20.8362 58.2103 34.0693 58.2103C35.3698 58.2103 36.6444 58.1044 37.8878 57.9038L37.8708 57.9068V61.2512C36.6279 61.4236 35.3592 61.5147 34.0693 61.5147C18.9116 61.5147 6.62375 49.2268 6.62375 34.0692C6.62375 18.9109 18.9116 6.62366 34.0693 6.62366V6.62425ZM37.879 6.88893L34.0693 6.62425L37.879 6.88893Z" fill="#F58634"/>
<path fill-rule="evenodd" clip-rule="evenodd" d="M34.0691 12.9543C35.3672 12.9543 36.6377 13.072 37.8706 13.2967V16.5047C36.646 16.2394 35.3743 16.0988 34.0691 16.0988C24.1446 16.0988 16.0987 24.1453 16.0987 34.0698C16.0987 43.9949 24.1446 52.0402 34.0691 52.0402C35.3743 52.0402 36.646 51.8996 37.8706 51.6349V54.8423C36.6377 55.0676 35.3672 55.1846 34.0691 55.1846C22.4082 55.1846 12.9537 45.7307 12.9537 34.0692C12.9537 22.4077 22.4082 12.9543 34.0691 12.9543ZM37.8835 13.2984L34.0691 12.9543L37.8835 13.2984Z" fill="#F58634"/>
<path fill-rule="evenodd" clip-rule="evenodd" d="M53.96 58.2236H56.7492L55.3046 67.8552H52.5377L53.96 58.2236Z" fill="#F58634"/>
<path fill-rule="evenodd" clip-rule="evenodd" d="M55.6464 57.2832C55.1459 57.2832 54.7218 57.1014 54.3718 56.7356C54.0224 56.3709 53.8483 55.9398 53.8483 55.4369C53.8483 54.9522 54.0266 54.5405 54.3806 54.1981C54.7336 53.8564 55.1541 53.6852 55.6464 53.6852C56.1405 53.6852 56.5634 53.8564 56.9134 54.1981C57.2598 54.5399 57.4345 54.9522 57.4345 55.4369C57.4345 55.9621 57.2681 56.4009 56.9299 56.7509C56.5911 57.1056 56.1805 57.2832 55.6947 57.2832H55.647H55.6464Z" fill="#F58634"/>
<path fill-rule="evenodd" clip-rule="evenodd" d="M57.8701 60.8387H58.8289V63.5244H62.168V60.8387H63.1268V67.8552H62.168V64.4819H58.8289V67.8552H57.8701V60.8387Z" fill="#F58634"/>
<path fill-rule="evenodd" clip-rule="evenodd" d="M64.3814 63.3097H65.3407V65.8701C65.3407 66.66 65.686 67.0547 66.3807 67.0547C66.6895 67.0547 66.9342 66.9494 67.1141 66.7394C67.2924 66.5265 67.3829 66.2371 67.3829 65.8701V63.3097H68.3417V66.0242C68.3417 66.5941 68.1552 67.0623 67.7829 67.4288C67.4123 67.7958 66.9365 67.9799 66.3595 67.9799C65.7689 67.9799 65.2931 67.7958 64.9284 67.4288C64.5643 67.0623 64.3814 66.583 64.3814 65.9907V63.3097Z" fill="#F58634"/>
<path fill-rule="evenodd" clip-rule="evenodd" d="M69.6519 60.7036H70.6107V64.1962C71.0189 63.5139 71.6012 63.1745 72.3605 63.1745C72.9493 63.1745 73.4563 63.4086 73.8892 63.8809C74.3198 64.3515 74.5362 64.9091 74.5362 65.5585C74.5362 66.2049 74.3227 66.7707 73.9004 67.2542C73.4763 67.7371 72.9811 67.9795 72.417 67.9795C72.0523 67.9795 71.7076 67.8818 71.3818 67.6883C71.0547 67.4948 70.7977 67.2289 70.6107 66.8966V67.8559H69.6519V60.7041V60.7036ZM73.5204 65.5561C73.5204 65.1403 73.3722 64.7838 73.0734 64.4886C72.774 64.1903 72.4129 64.0427 71.9906 64.0427C71.58 64.0427 71.2253 64.1933 70.9259 64.4938C70.6248 64.7921 70.4748 65.1473 70.4748 65.5561C70.4748 65.9843 70.6248 66.3437 70.9259 66.6372C71.2253 66.9307 71.5947 67.0772 72.0329 67.0772C72.4393 67.0772 72.7876 66.929 73.0799 66.6296C73.374 66.3302 73.5199 65.9726 73.5199 65.5561H73.5204Z" fill="#F58634"/>
<path fill-rule="evenodd" clip-rule="evenodd" d="M42.9155 55.7392H39.4646C39.5699 54.1787 40.1457 52.9276 41.1809 51.9818C42.2215 51.0378 43.4672 50.5631 44.9195 50.5631C46.5117 50.5631 47.8722 51.0142 48.9898 51.9189C50.1073 52.8223 50.6649 53.9134 50.6649 55.1863C50.6649 56.5779 49.9762 57.8331 48.6027 58.9566C49.4785 59.5089 50.1179 60.0883 50.5243 60.69C50.9302 61.2935 51.1308 62.014 51.1308 62.8545C51.1308 64.4515 50.602 65.7343 49.5385 66.6972C48.4798 67.66 47.0787 68.1435 45.33 68.1435C43.7102 68.1435 42.3638 67.6824 41.3003 66.7601C40.2363 65.8343 39.5799 64.5514 39.3287 62.9127H42.8602C43.2808 64.5373 44.0884 65.3496 45.28 65.3496C45.8776 65.3496 46.38 65.1396 46.7911 64.7155C47.2022 64.2909 47.4075 63.7662 47.4075 63.141C47.4075 62.374 47.1605 61.744 46.664 61.2599C46.1664 60.7717 45.5306 60.53 44.7507 60.53H44.1213V57.6543H44.496C45.3083 57.6543 45.9612 57.4538 46.4541 57.052C46.9423 56.655 47.1881 56.1209 47.1881 55.4639C47.1881 54.8657 46.997 54.3593 46.6094 53.934C46.2217 53.5105 45.7459 53.3005 45.1853 53.3005C43.8796 53.3005 43.122 54.1122 42.9167 55.738L42.9155 55.7392Z" fill="#F58634"/>
<path fill-rule="evenodd" clip-rule="evenodd" d="M2.45621 79.4115H2.93676V82.9289H2.45621V79.4115ZM3.57141 82.9289V80.6509H4.05256V81.0285C4.18843 80.875 4.31195 80.7638 4.42429 80.6909C4.53605 80.6191 4.65957 80.5832 4.7972 80.5832C5.00189 80.5832 5.176 80.6514 5.32128 80.7879C5.46656 80.9238 5.53891 81.0879 5.53891 81.2802V82.9295H5.05718V81.4196C5.05718 81.2955 5.01895 81.1932 4.93896 81.112C4.86014 81.0308 4.75838 80.9896 4.63604 80.9896C4.47664 80.9896 4.34077 81.0579 4.22372 81.1932C4.10843 81.3296 4.05197 81.4926 4.05197 81.6849V82.9295H3.57083L3.57141 82.9289ZM8.0546 79.3445H8.52456V82.9289H8.0546V82.4542C7.82815 82.8125 7.5317 82.9913 7.16349 82.9913C6.86704 82.9913 6.61236 82.8719 6.40061 82.6336C6.18886 82.3966 6.08299 82.1113 6.08299 81.7772C6.08299 81.4502 6.19063 81.1702 6.40708 80.935C6.62295 80.6997 6.88116 80.5826 7.18114 80.5826C7.36112 80.5826 7.52876 80.6332 7.68404 80.7314C7.83815 80.8314 7.96402 80.9602 8.05519 81.1208V79.3445H8.0546ZM8.11107 81.7819C8.11107 81.5778 8.03695 81.399 7.88638 81.249C7.73698 81.0985 7.55817 81.0238 7.34877 81.0238C7.13408 81.0238 6.95292 81.0961 6.80411 81.2438C6.65412 81.3914 6.58001 81.569 6.58001 81.7819C6.58001 81.9855 6.6553 82.1631 6.80705 82.316C6.95939 82.4678 7.13585 82.5442 7.33936 82.5442C7.55346 82.5442 7.73698 82.4707 7.88638 82.3231C8.03695 82.1749 8.11107 81.9949 8.11107 81.7819ZM9.16746 79.9033C9.16746 79.8039 9.20451 79.718 9.27862 79.645C9.35215 79.5733 9.43979 79.5356 9.53978 79.5356C9.63977 79.5356 9.72623 79.5739 9.80035 79.645C9.87152 79.7174 9.90799 79.8039 9.90799 79.9033C9.90799 80.0044 9.87152 80.0915 9.80035 80.1644C9.72682 80.235 9.64036 80.2715 9.53978 80.2715C9.43979 80.2715 9.35215 80.2356 9.27862 80.1644C9.20451 80.0915 9.16746 80.0044 9.16746 79.9033ZM9.30333 80.6509H9.78447V82.9289H9.30333V80.6509ZM12.4137 80.6509H12.8948V82.9289H12.4137V82.4766C12.1796 82.8201 11.8896 82.9913 11.5426 82.9913C11.2432 82.9913 10.9855 82.8742 10.7714 82.6366C10.5597 82.4013 10.4521 82.1154 10.4521 81.7772C10.4521 81.4578 10.5597 81.1785 10.775 80.9402C10.9897 80.7014 11.2426 80.5826 11.5308 80.5826C11.7102 80.5826 11.8802 80.632 12.0425 80.7297C12.2019 80.8279 12.3266 80.9561 12.4143 81.1132V80.6509H12.4137ZM12.4825 81.7937C12.4825 81.5855 12.4066 81.4055 12.2578 81.2579C12.1066 81.1085 11.9278 81.0344 11.7178 81.0344C11.5132 81.0344 11.3367 81.1085 11.1844 81.2561C11.0326 81.4037 10.9556 81.5778 10.9556 81.7772C10.9556 81.9931 11.0303 82.1766 11.1791 82.3278C11.3261 82.4801 11.5067 82.556 11.7184 82.556C11.9284 82.556 12.1072 82.4795 12.2584 82.329C12.4072 82.1796 12.4831 82.0002 12.4831 81.7937H12.4825ZM13.5283 82.9289V80.6509H14.0083V81.0285C14.1453 80.875 14.27 80.7638 14.3806 80.6909C14.4923 80.6191 14.6159 80.5832 14.7535 80.5832C14.9576 80.5832 15.1329 80.6514 15.2776 80.7879C15.4223 80.9238 15.4964 81.0879 15.4964 81.2802V82.9295H15.0158V81.4196C15.0158 81.2955 14.9752 81.1932 14.8947 81.112C14.8164 81.0308 14.7147 80.9896 14.5923 80.9896C14.4335 80.9896 14.2959 81.0579 14.1812 81.1932C14.0665 81.3296 14.0083 81.4926 14.0083 81.6849V82.9295H13.5283V82.9289ZM17.6892 79.4115H18.1691V82.9289H17.6892V79.4115ZM18.8038 82.9289V80.6509H19.2843V81.0285C19.4214 80.875 19.5461 80.7638 19.6566 80.6909C19.7678 80.6191 19.8919 80.5832 20.0278 80.5832C20.2331 80.5832 20.4084 80.6514 20.553 80.7879C20.6989 80.9238 20.7707 81.0879 20.7707 81.2802V82.9295H20.2913V81.4196C20.2913 81.2955 20.2513 81.1932 20.1707 81.112C20.0907 81.0308 19.9907 80.9896 19.8684 80.9896C19.7096 80.9896 19.5719 81.0579 19.4567 81.1932C19.3408 81.3296 19.2837 81.4926 19.2837 81.6849V82.9295H18.8032L18.8038 82.9289ZM22.7446 80.9161L22.4247 81.1985C22.3406 81.1396 22.2694 81.0943 22.2082 81.0644C22.1476 81.0332 22.0753 81.0179 21.9924 81.0179C21.7959 81.0179 21.6988 81.0896 21.6988 81.2337C21.6988 81.3379 21.8212 81.4373 22.0694 81.5343C22.3164 81.6314 22.4964 81.7372 22.6041 81.8543C22.7129 81.9708 22.767 82.1102 22.767 82.2754C22.767 82.4666 22.6888 82.6336 22.5329 82.7766C22.3747 82.9189 22.1917 82.9913 21.9794 82.9913C21.6583 82.9913 21.3947 82.8425 21.1895 82.5454L21.5665 82.3631C21.6994 82.4919 21.8371 82.5566 21.9812 82.5566C22.0806 82.5566 22.167 82.5289 22.2423 82.4737C22.3159 82.4201 22.3541 82.356 22.3541 82.2843C22.3541 82.1566 22.2235 82.0425 21.9624 81.9396C21.7 81.8366 21.52 81.7349 21.42 81.6314C21.3183 81.5267 21.2689 81.3973 21.2689 81.2449C21.2689 81.0555 21.3395 80.8967 21.4824 80.772C21.6253 80.6456 21.8059 80.5826 22.02 80.5826C22.2359 80.5826 22.4776 80.6926 22.7441 80.9161H22.7446ZM23.4069 79.9944H23.8869V80.6509H24.3622V81.0961H23.8869V82.9289H23.4069V81.0961H23.0276V80.6509H23.4069V79.9944ZM24.6957 79.9033C24.6957 79.8039 24.7321 79.718 24.8057 79.645C24.8809 79.5733 24.9662 79.5356 25.0686 79.5356C25.1686 79.5356 25.255 79.5739 25.3268 79.645C25.4003 79.7174 25.4374 79.8039 25.4374 79.9033C25.4374 80.0044 25.4003 80.0915 25.3268 80.1644C25.255 80.235 25.1692 80.2715 25.0686 80.2715C24.9662 80.2715 24.8809 80.2356 24.8057 80.1644C24.7321 80.0915 24.6957 80.0044 24.6957 79.9033ZM24.8315 80.6509H25.3121V82.9289H24.8315V80.6509ZM26.1779 79.9944H26.659V80.6509H27.1337V81.0961H26.659V82.9289H26.1779V81.0961H25.7985V80.6509H26.1779V79.9944ZM27.4678 80.6509H27.9484V81.9331C27.9484 82.329 28.1213 82.5266 28.4695 82.5266C28.6242 82.5266 28.7459 82.4737 28.8365 82.3695C28.9265 82.2625 28.9724 82.1178 28.9724 81.9331V80.6509H29.4524V82.0108C29.4524 82.2966 29.3588 82.5313 29.1724 82.7154C28.9865 82.8989 28.7483 82.9913 28.4583 82.9913C28.1636 82.9913 27.9254 82.8989 27.7419 82.7154C27.5596 82.5319 27.4678 82.2907 27.4678 81.9943V80.6509ZM30.1876 79.9944H30.6682V80.6509H31.1434V81.0961H30.6682V82.9289H30.1876V81.0961H29.8088V80.6509H30.1876V79.9944ZM33.8397 81.8766H31.8951C31.9369 82.1125 32.0322 82.2843 32.1839 82.3925C32.3339 82.5013 32.498 82.5566 32.6745 82.5566C32.9468 82.5566 33.1762 82.4431 33.3597 82.216L33.7109 82.4813C33.4473 82.8225 33.095 82.9913 32.6533 82.9913C32.3145 82.9913 32.0316 82.8748 31.8016 82.6425C31.5728 82.4101 31.4599 82.1219 31.4599 81.7772C31.4599 81.4537 31.5751 81.1743 31.8075 80.9385C32.0369 80.7008 32.3186 80.582 32.6533 80.582C32.9803 80.582 33.2621 80.7014 33.4956 80.9414C33.7297 81.182 33.8438 81.4937 33.8397 81.8761V81.8766ZM31.9457 81.4926H33.3421C33.1868 81.1796 32.9586 81.0238 32.6551 81.0238C32.3245 81.0238 32.088 81.1796 31.9457 81.4926ZM35.8231 81.7808C35.8231 81.4679 35.946 81.1908 36.1924 80.9473C36.4383 80.7044 36.7206 80.5826 37.0388 80.5826C37.3676 80.5826 37.6535 80.702 37.8988 80.942C38.144 81.1808 38.2658 81.4596 38.2658 81.7808C38.2658 82.1019 38.1458 82.3848 37.9052 82.6289C37.6653 82.8754 37.3882 82.9966 37.0718 82.9966C36.7353 82.9966 36.443 82.8766 36.1948 82.6336C35.9466 82.3913 35.8225 82.1072 35.8225 81.7808H35.8231ZM37.8029 81.7819C37.8029 81.5861 37.7294 81.4173 37.5812 81.2737C37.4347 81.1302 37.2588 81.0579 37.0559 81.0579C36.8477 81.0579 36.6683 81.1296 36.5177 81.2767C36.3683 81.422 36.2918 81.5967 36.2918 81.799C36.2918 81.9919 36.3689 82.1607 36.5206 82.306C36.673 82.4507 36.8512 82.5225 37.0559 82.5225C37.2541 82.5225 37.4288 82.4478 37.5782 82.3001C37.7276 82.1507 37.8023 81.9784 37.8023 81.7819H37.8029ZM40.1557 79.3733V79.8597C40.0145 79.7686 39.8945 79.7233 39.7933 79.7233C39.7086 79.7233 39.6416 79.755 39.5939 79.8186C39.5451 79.8797 39.5222 79.9674 39.5222 80.0803V80.652H40.1562V81.0926H39.5222V82.9301H39.041V81.0926H38.6234V80.652H39.041V80.1138C39.041 79.8544 39.1087 79.6468 39.2428 79.4921C39.3757 79.338 39.5539 79.2604 39.7763 79.2604C39.8874 79.2604 40.0127 79.2986 40.1557 79.3739V79.3733ZM42.2231 79.4121H44.3824V79.8939H43.5401V82.9295H43.0596V79.8939H42.2231V79.4121ZM46.6899 81.8772H44.7447C44.7871 82.1131 44.8835 82.2848 45.0329 82.3931C45.1841 82.5019 45.347 82.5572 45.5241 82.5572C45.797 82.5572 46.0252 82.4437 46.2087 82.2166L46.5599 82.4819C46.2975 82.823 45.944 82.9919 45.5023 82.9919C45.1635 82.9919 44.8806 82.8754 44.6524 82.6431C44.4224 82.4107 44.31 82.1225 44.31 81.7778C44.31 81.4543 44.4253 81.1749 44.6565 80.9391C44.8876 80.7014 45.1688 80.5826 45.5023 80.5826C45.8305 80.5826 46.1111 80.702 46.3446 80.942C46.5787 81.1826 46.694 81.4943 46.6899 81.8766V81.8772ZM44.7953 81.4931H46.1922C46.0364 81.1802 45.807 81.0244 45.5047 81.0244C45.1753 81.0244 44.9382 81.1802 44.7953 81.4931ZM48.9515 82.2343V82.7825C48.7062 82.9219 48.468 82.9919 48.2386 82.9919C47.9233 82.9919 47.6498 82.8725 47.4122 82.636C47.1751 82.3984 47.0569 82.1243 47.0569 81.8137C47.0569 81.459 47.1739 81.1655 47.4098 80.932C47.6451 80.6991 47.9415 80.5832 48.2968 80.5832C48.508 80.5832 48.7268 80.6373 48.9515 80.7473V81.2843C48.7097 81.1332 48.4821 81.0585 48.2662 81.0585C48.0674 81.0585 47.8933 81.1273 47.7439 81.2685C47.5957 81.4079 47.5216 81.5726 47.5216 81.7596C47.5216 81.9708 47.591 82.1484 47.731 82.2943C47.8709 82.439 48.0421 82.5113 48.2444 82.5113C48.4515 82.5113 48.6862 82.419 48.952 82.2343H48.9515ZM49.5379 79.3457H50.0184V81.0196C50.1519 80.8673 50.2755 80.7561 50.3907 80.6867C50.5049 80.6185 50.6466 80.5832 50.8107 80.5832C51.0042 80.5832 51.1713 80.6573 51.3119 80.8056C51.4524 80.9544 51.523 81.1314 51.523 81.3384V82.9289H51.0419V81.4673C51.0419 81.3232 51.0048 81.2067 50.9325 81.1208C50.8613 81.0332 50.7643 80.9891 50.646 80.9891C50.4719 80.9891 50.3237 81.0555 50.2025 81.1861C50.0802 81.319 50.0178 81.4779 50.0178 81.6637V82.9289H49.5373V79.3445L49.5379 79.3457ZM52.0324 82.9301V80.652H52.5118V81.0296C52.6488 80.8761 52.7729 80.765 52.8853 80.692C52.9964 80.6203 53.1211 80.5844 53.2576 80.5844C53.4611 80.5844 53.6376 80.6526 53.7823 80.7891C53.9275 80.925 53.9999 81.0891 53.9999 81.2814V82.9307H53.5193V81.4208C53.5193 81.2967 53.4793 81.1943 53.3993 81.1132C53.3211 81.032 53.2205 80.9908 53.097 80.9908C52.9376 80.9908 52.8012 81.0591 52.6841 81.1943C52.5706 81.3308 52.5118 81.4937 52.5118 81.6861V82.9307H52.0324V82.9301ZM54.4687 81.7819C54.4687 81.469 54.5922 81.192 54.8381 80.9485C55.0839 80.7056 55.3662 80.5838 55.6856 80.5838C56.0133 80.5838 56.2991 80.7032 56.545 80.9432C56.7897 81.182 56.9126 81.4608 56.9126 81.7819C56.9126 82.1031 56.7914 82.386 56.5509 82.6301C56.3109 82.8766 56.0338 82.9977 55.7174 82.9977C55.3821 82.9977 55.0886 82.8777 54.841 82.6348C54.5928 82.3925 54.4687 82.1084 54.4687 81.7819ZM56.4479 81.7831C56.4479 81.5873 56.3744 81.4184 56.2262 81.2749C56.0791 81.1314 55.9044 81.0591 55.7015 81.0591C55.4933 81.0591 55.3145 81.1308 55.1633 81.2779C55.0139 81.4231 54.9386 81.5978 54.9386 81.8002C54.9386 81.9931 55.0151 82.1619 55.1663 82.3072C55.3186 82.4519 55.4968 82.5237 55.7015 82.5237C55.9009 82.5237 56.075 82.449 56.2238 82.3013C56.3738 82.1519 56.4479 81.9796 56.4479 81.7831ZM57.4879 79.3462H57.9684V82.9307H57.4879V79.3462ZM58.5354 81.7819C58.5354 81.469 58.6572 81.192 58.9036 80.9485C59.1501 80.7056 59.4324 80.5838 59.7506 80.5838C60.0794 80.5838 60.3659 80.7032 60.61 80.9432C60.8564 81.182 60.9782 81.4608 60.9782 81.7819C60.9782 82.1031 60.8576 82.386 60.6176 82.6301C60.3759 82.8766 60.0994 82.9977 59.7841 82.9977C59.4477 82.9977 59.1548 82.8777 58.906 82.6348C58.6578 82.3925 58.5348 82.1084 58.5348 81.7819H58.5354ZM60.5147 81.7831C60.5147 81.5873 60.4406 81.4184 60.2935 81.2749C60.1471 81.1314 59.9706 81.0591 59.7689 81.0591C59.5606 81.0591 59.3806 81.1308 59.2307 81.2779C59.0813 81.4231 59.0054 81.5978 59.0054 81.8002C59.0054 81.9931 59.0824 82.1619 59.2336 82.3072C59.3854 82.4519 59.5642 82.5237 59.7694 82.5237C59.9677 82.5237 60.1418 82.449 60.2912 82.3013C60.4406 82.1519 60.5153 81.9796 60.5153 81.7831H60.5147ZM63.388 80.6526H63.8568V82.8401C63.8568 83.1607 63.745 83.4365 63.5239 83.66C63.3015 83.8853 63.0333 84 62.7186 84C62.4792 84 62.2592 83.9347 62.0587 83.8059C61.8569 83.6753 61.7105 83.4783 61.6169 83.2136H62.1134C62.2628 83.4583 62.4698 83.5812 62.7351 83.5812C62.9151 83.5812 63.0692 83.5165 63.1956 83.3859C63.3227 83.2565 63.3874 83.1018 63.3874 82.9189V82.4884C63.1539 82.8254 62.8621 82.9936 62.5086 82.9936C62.2175 82.9936 61.9634 82.8724 61.7487 82.6331C61.5322 82.3931 61.424 82.1084 61.424 81.7802C61.424 81.4508 61.5299 81.1702 61.7393 80.9367C61.9505 80.702 62.201 80.5856 62.4916 80.5856C62.8674 80.5856 63.1656 80.7679 63.3868 81.1338V80.6538L63.388 80.6526ZM63.4545 81.7849C63.4545 81.5702 63.3798 81.3908 63.2327 81.2467C63.0851 81.1032 62.9004 81.0314 62.6822 81.0314C62.481 81.0314 62.3045 81.1061 62.1528 81.2555C61.9987 81.4049 61.9216 81.5773 61.9216 81.7731C61.9216 81.9855 61.9981 82.1678 62.1481 82.3219C62.2998 82.4748 62.4798 82.5519 62.688 82.5519C62.8986 82.5519 63.0804 82.4772 63.2298 82.3278C63.3792 82.1784 63.4545 81.9966 63.4545 81.7849ZM64.352 80.6526H64.8973L65.7213 81.8849L66.2889 80.6526H66.7901L65.2502 84H64.7491L65.499 82.3678L64.352 80.6526ZM68.9317 79.4133H69.4128V80.8455L70.8998 79.4133H71.5721L69.874 81.0502L71.5832 82.9307H70.9686L69.4128 81.2196V82.9307H68.9317V79.4133ZM73.8101 80.6526H74.2913V82.9307H73.8101V82.4784C73.576 82.8219 73.2849 82.993 72.939 82.993C72.6379 82.993 72.3808 82.876 72.1679 82.6383C71.9556 82.4031 71.8479 82.1172 71.8479 81.779C71.8479 81.4596 71.9567 81.1802 72.1708 80.942C72.3855 80.7032 72.6379 80.5844 72.9272 80.5844C73.1066 80.5844 73.2766 80.6338 73.4372 80.7314C73.5972 80.8297 73.7225 80.9579 73.8095 81.1149V80.6526H73.8101ZM73.8784 81.7955C73.8784 81.5873 73.8031 81.4073 73.6537 81.2596C73.5025 81.1102 73.3237 81.0361 73.1137 81.0361C72.9102 81.0361 72.732 81.1102 72.579 81.2579C72.4285 81.4055 72.3514 81.5796 72.3514 81.779C72.3514 81.9949 72.4261 82.1784 72.5737 82.3295C72.722 82.4819 72.902 82.5578 73.1143 82.5578C73.3243 82.5578 73.5031 82.4813 73.6543 82.3307C73.8036 82.1813 73.8789 82.0019 73.8789 81.7955H73.8784ZM74.9236 82.9307V80.6526H75.4047V81.0302C75.5406 80.8767 75.6659 80.7656 75.777 80.6926C75.887 80.6209 76.0123 80.585 76.1482 80.585C76.3529 80.585 76.5293 80.6532 76.6734 80.7897C76.8193 80.9255 76.8911 81.0896 76.8911 81.282V82.9313H76.4117V81.4214C76.4117 81.2973 76.3711 81.1949 76.2911 81.1138C76.2123 81.0326 76.1105 80.9914 75.9894 80.9914C75.8288 80.9914 75.6929 81.0597 75.5765 81.1949C75.4618 81.3314 75.4047 81.4943 75.4047 81.6867V82.9313H74.9236V82.9307ZM78.0345 80.6526V81.1102C78.2621 80.7597 78.5574 80.5844 78.9144 80.5844C79.2085 80.5844 79.4615 80.7014 79.6732 80.9367C79.885 81.172 79.9908 81.452 79.9908 81.779C79.9908 82.1084 79.882 82.3931 79.6673 82.6325C79.4526 82.8724 79.1985 82.993 78.9062 82.993C78.7374 82.993 78.5739 82.9483 78.4186 82.8601C78.2633 82.7725 78.1351 82.6442 78.0351 82.4754V83.9994H77.5534V80.652H78.0351L78.0345 80.6526ZM79.4926 81.779C79.4926 81.5773 79.4173 81.4008 79.2673 81.2508C79.1156 81.1002 78.938 81.0255 78.7327 81.0255C78.5262 81.0255 78.3462 81.0985 78.1945 81.2496C78.0422 81.399 77.9669 81.5761 77.9669 81.779C77.9669 81.9872 78.0416 82.1678 78.191 82.3219C78.3404 82.4748 78.5186 82.5519 78.7233 82.5519C78.9338 82.5519 79.1156 82.476 79.2673 82.3254C79.4179 82.1731 79.4926 81.9919 79.4926 81.7796V81.779ZM80.5202 80.6526H81.0013V81.9349C81.0013 82.3307 81.1754 82.5284 81.5231 82.5284C81.6766 82.5284 81.7989 82.4754 81.8901 82.3713C81.9801 82.2643 82.0236 82.1196 82.0236 81.9349V80.6526H82.5059V82.0125C82.5059 82.2984 82.4124 82.5331 82.2259 82.7172C82.0395 82.9007 81.8007 82.993 81.5113 82.993C81.216 82.993 80.9778 82.9007 80.7943 82.7172C80.6125 82.5337 80.5202 82.2925 80.5202 81.996V80.6526ZM83.6194 80.6526V81.1214C83.7252 80.932 83.8305 80.7956 83.9329 80.7097C84.0358 80.6262 84.1682 80.5844 84.3311 80.5844C84.3781 80.5844 84.4428 80.5944 84.5299 80.6179L84.3881 81.0979C84.2958 81.0808 84.2352 81.0714 84.2064 81.0714C84.0417 81.0714 83.9058 81.1273 83.7958 81.2414C83.6852 81.3537 83.6311 81.4961 83.6311 81.6661V82.9313H83.15V80.6532H83.6194V80.6526Z" fill="#F58634"/>
<path fill-rule="evenodd" clip-rule="evenodd" d="M12.5391 73.1074H12.2556L12.0227 72.7021H12.5391V73.1074ZM12.9738 74.7679H12.1004V75.1649C12.1004 75.1984 12.0962 75.2249 12.0862 75.2443L12.0574 75.3008L11.9868 75.3431L11.9227 75.3572C11.8604 75.3572 11.7945 75.3308 11.7239 75.2796L11.5816 75.172C11.3504 74.9996 11.1957 74.8149 11.1204 74.6149C11.1022 74.5749 11.0898 74.5273 11.0857 74.4714L11.0993 74.4202L11.1428 74.3714L11.1987 74.3426L11.2557 74.3361H11.6816V73.9797L11.3481 73.9597C11.1963 73.9503 11.0428 73.8832 10.8875 73.7615C10.741 73.6527 10.6669 73.4891 10.6669 73.2715C10.6669 73.1715 10.6781 73.0886 10.7022 73.0227C10.791 72.8286 10.9499 72.7227 11.1769 72.7033C11.2104 72.7033 11.2387 72.7033 11.2616 72.7033C11.4275 72.7033 11.6169 72.7674 11.8304 72.8939C11.9257 72.9498 11.9939 73.018 12.0362 73.0974C12.0792 73.178 12.1004 73.2715 12.1004 73.3786V74.3361H12.9738V74.7685V74.7679ZM11.681 73.7315V73.1921L11.6604 73.1286L11.6104 73.0721C11.5769 73.0474 11.5486 73.0333 11.5245 73.0298L11.4322 73.0145C11.2851 73.0145 11.1751 73.0462 11.0987 73.1074C11.0428 73.1545 11.0146 73.2315 11.0146 73.3415C11.0146 73.3939 11.0334 73.4415 11.071 73.4862C11.1081 73.5315 11.161 73.5744 11.2269 73.6174L11.4186 73.6956L11.611 73.7238L11.661 73.7162L11.6816 73.7303L11.681 73.7315ZM14.0026 73.0721H13.9679V73.1074H13.4208V76.536L12.9738 76.2095V74.3385V73.1074H12.5403V72.7021H14.0031V73.0715L14.0026 73.0721ZM15.2242 73.0721H15.1883V73.1074H14.6407V76.536L14.1955 76.2095V73.1074H13.7614V72.7021H15.2242V73.0715V73.0721ZM17.7799 73.0721H17.7434V73.1074H16.7647L16.8141 73.3621L16.8423 73.6309C16.8423 74.1085 16.6559 74.5526 16.2812 74.9643C16.3306 75.0825 16.3953 75.1984 16.4771 75.3114L16.7353 75.6837L17.047 76.0319C17.1147 76.1072 17.2376 76.2048 17.4176 76.323L17.0629 76.5295L16.8218 76.2378L16.6235 75.9678L16.3959 75.6407L16.2253 75.3861L15.8995 74.889L15.743 74.612L15.6436 74.4061L15.6071 74.215C15.6071 74.1061 15.6636 74.0514 15.7777 74.0514L16.3465 74.045V73.108H15.0542V72.7027H17.7805V73.0721H17.7799ZM20.6191 73.0721H20.5838V73.1074H20.0374V76.5301L19.6051 76.2383V74.1438H18.4328C18.3946 74.1438 18.3469 74.155 18.2905 74.1785L18.184 74.2779C18.1505 74.3261 18.1275 74.372 18.1134 74.4197L18.0922 74.5973C18.0922 74.7585 18.1258 74.9237 18.1916 75.0937C18.2716 75.2978 18.3828 75.4796 18.5257 75.6407L18.7022 75.8401C18.7504 75.8913 18.8522 75.9866 19.0086 76.123L18.6963 76.2725C18.6157 76.2489 18.5422 76.1872 18.4757 76.0872L18.1634 75.6166C18.0075 75.3802 17.8917 75.1596 17.8146 74.9584C17.7393 74.7561 17.7023 74.5802 17.7023 74.4291C17.7023 74.2708 17.7282 74.1432 17.7805 74.0444C17.7946 74.0062 17.8181 73.9679 17.8511 73.9309L17.9358 73.8232L18.0352 73.7456L18.1275 73.6956L18.2193 73.6815H19.6051V73.1062H17.5099V72.701H20.6191V73.0703V73.0721ZM21.7714 73.0721H21.7349V73.1074H21.2591V76.536L20.8126 76.2095V73.1074H20.4509V72.7021H20.9332C20.9238 72.6498 20.9026 72.581 20.8703 72.4963C20.8361 72.4116 20.7656 72.2851 20.6562 72.1198C20.4297 71.7752 20.1938 71.6022 19.9533 71.6022C19.8968 71.6022 19.838 71.6146 19.7768 71.6369C19.6868 71.6934 19.6204 71.7799 19.5774 71.8934C19.558 71.9487 19.5433 72.0304 19.5351 72.1345L19.5562 72.3192L19.6127 72.4892C19.6274 72.5227 19.6604 72.568 19.7121 72.6245C19.7333 72.6474 19.7633 72.6745 19.7992 72.7033H19.511C19.5068 72.698 19.5033 72.6921 19.4998 72.688L19.3574 72.4963C19.2869 72.4004 19.2322 72.3016 19.1933 72.2004C19.1557 72.0963 19.1369 72.004 19.1369 71.9181C19.1369 71.8222 19.1545 71.7304 19.1869 71.6393C19.2104 71.5769 19.2563 71.5022 19.3216 71.4122C19.3839 71.3458 19.4592 71.2911 19.5492 71.254C19.6392 71.2164 19.7309 71.1975 19.8256 71.1975C20.1703 71.1975 20.4974 71.4375 20.8056 71.9187C20.8809 72.0369 20.9785 72.2034 21.0973 72.4204C21.1538 72.5239 21.1855 72.6174 21.1967 72.7033H21.772V73.0727L21.7714 73.0721ZM24.7223 73.0721H24.6876V73.1074H24.2118V76.536L23.7795 76.2025V75.052L23.6789 75.1449C23.6406 75.1825 23.5795 75.2202 23.4948 75.259L23.3883 75.3072L23.296 75.3366C23.2536 75.3366 23.2207 75.3419 23.196 75.3508L23.0901 75.3572C22.7831 75.3755 22.5095 75.2655 22.2731 75.0231C22.179 74.9237 22.0866 74.7896 21.9966 74.6185C21.9361 74.4526 21.9043 74.2732 21.9043 74.0791H22.0319C22.0702 74.0791 22.1219 74.0744 22.189 74.065L22.3731 74.0091C22.4872 73.9462 22.5625 73.8468 22.5995 73.7085C22.6107 73.6497 22.6142 73.6009 22.6142 73.5574V73.3862C22.6142 73.3286 22.6107 73.2944 22.5995 73.278C22.5901 73.2309 22.5813 73.2033 22.5725 73.1939L22.5137 73.108H21.6702V72.7027H24.7229V73.0721H24.7223ZM23.7795 74.462V73.1074H22.7854L22.7919 73.1286L22.8766 73.2991C22.9142 73.3791 22.9425 73.4503 22.9619 73.5121L22.9901 73.7032C22.9901 73.9015 22.9354 74.0773 22.8272 74.2291C22.7795 74.2944 22.7184 74.3479 22.6425 74.3844C22.619 74.3944 22.5825 74.4085 22.5325 74.4273C22.4831 74.4461 22.446 74.4602 22.4219 74.4696L22.216 74.4897L22.3007 74.6479C22.3249 74.6802 22.3384 74.6967 22.3431 74.6967C22.4766 74.8484 22.6831 74.9243 22.9683 74.9243C23.0301 74.9243 23.0772 74.919 23.1107 74.9108L23.2524 74.8673L23.3871 74.8037L23.5365 74.7043L23.6924 74.5626L23.7789 74.462H23.7795ZM30.0472 73.1074H30.0119H29.5143V76.5648L29.0885 76.2307V75.2014C28.8738 75.3608 28.5067 75.419 28.2797 75.2443C28.1556 75.1543 28.0309 75.0331 27.9033 74.8826L27.6192 74.5414C27.5615 74.4514 27.5292 74.3873 27.5203 74.3491V73.1074H27.2151V72.7021H30.0472V73.1074ZM29.0885 74.7049V73.1074H27.9674V74.5414C27.9762 74.5838 28.005 74.629 28.0521 74.6755L28.2015 74.8249L28.335 74.9243L28.4644 74.9537C28.5485 74.9537 28.6408 74.9326 28.7402 74.8896L28.8761 74.8326C28.9326 74.8149 28.9849 74.7855 29.032 74.7479L29.0885 74.7055V74.7049ZM28.6426 75.3519C28.7879 75.3443 28.9349 75.3108 29.0885 75.2014V75.2478L27.4427 76.2242L27.201 75.8548L28.2797 75.2449C28.382 75.3219 28.4973 75.3537 28.6426 75.3525V75.3519ZM31.3318 73.0721H31.2971V73.1074H30.7501V76.536L30.3031 76.2095V73.1074H30.0472V72.7033L31.3318 72.7021V73.0715V73.0721ZM30.3925 72.7039L30.3101 72.5745L30.1543 72.348L29.8919 71.9569L29.6584 71.6375L29.5725 71.5393L29.502 71.4681L29.4167 71.4246C29.3837 71.4105 29.3461 71.404 29.3026 71.404L28.7273 71.4322L28.522 70.9135H29.3955L29.5161 70.9346C29.5355 70.9446 29.5661 70.9605 29.6078 70.9846L29.7008 71.0487L29.7713 71.1487L30.0619 71.6157L30.6572 72.7027L30.3925 72.7033V72.7039ZM29.6725 72.7033L29.6502 72.6739C29.6172 72.6269 29.5878 72.5886 29.5578 72.5604C29.5302 72.5316 29.4896 72.491 29.4378 72.4398L29.2173 72.2192L29.1684 72.191L29.1255 72.1487L29.0408 72.1063L28.9555 72.0987L28.4797 72.1198L28.3167 71.6728H28.8426L28.9267 71.6869L28.9914 71.6934C29.0143 71.6934 29.0426 71.704 29.0767 71.7228L29.1473 71.7722C29.2132 71.8199 29.299 71.9028 29.4031 72.021L29.7013 72.3616L29.9149 72.6168L29.9713 72.7033H29.6731H29.6725ZM34.598 73.0721H34.5627V73.1074H34.0798V76.536L33.654 76.2025V75.429L33.4969 75.5425L33.3346 75.6496C33.1975 75.739 33.0676 75.8054 32.9435 75.8478C32.8211 75.8901 32.7123 75.9119 32.617 75.9119C32.457 75.9119 32.3306 75.8919 32.2406 75.8542C32.1794 75.8407 32.1223 75.816 32.0706 75.7831C31.9429 75.7319 31.83 75.646 31.7294 75.5278C31.5694 75.3478 31.4883 75.1496 31.4883 74.9326L31.51 74.7967L31.5812 74.6679L31.6518 74.5749L31.7441 74.5044L31.6518 74.3897L31.5524 74.225L31.4665 74.0538L31.4318 73.8909C31.4318 73.8326 31.4359 73.7903 31.4459 73.7621L31.5165 73.6468L31.623 73.5756C31.6318 73.5662 31.67 73.5568 31.7359 73.5474H32.4741V73.108H31.1971V72.7027H34.5974V73.0721H34.598ZM33.654 73.1074H32.8805V73.9232H31.9929L31.9077 73.9456L31.8582 73.9597L31.83 74.002L31.8218 74.0938C31.8177 74.1461 31.8271 74.1961 31.85 74.2432C31.8606 74.2767 31.8818 74.305 31.9141 74.3285C31.9241 74.3332 31.9641 74.3491 32.0353 74.3779L32.2064 74.3926L32.7535 74.3573L32.994 74.8037H32.8164L32.3553 74.7679L32.1418 74.7896C32.0235 74.799 31.9294 74.8526 31.8582 74.9531C31.8341 75.0096 31.8218 75.069 31.8218 75.1302C31.8218 75.2631 31.88 75.3619 31.9929 75.4284L32.1912 75.5066L32.4111 75.5349C32.6005 75.5349 32.7993 75.4784 33.0082 75.3637C33.0605 75.3366 33.1393 75.2884 33.2499 75.2219L33.434 75.0867L33.6546 74.9173V73.1068L33.654 73.1074ZM35.8621 73.0721H35.8256V73.1074H35.2786V76.536L34.831 76.2095V73.1074H34.3986V72.7021H35.8615V73.0715L35.8621 73.0721ZM35.2162 72.6674C35.2256 72.6863 35.2256 72.698 35.2162 72.7021C35.2162 72.7033 35.2162 72.7021 35.2162 72.7021H34.9198L34.868 72.6245L34.1798 71.7646C34.1463 71.7281 34.1134 71.7016 34.0804 71.6869L33.931 71.6587H33.2493L33.0017 71.1323H33.8104C33.8763 71.1323 33.9269 71.1387 33.9598 71.1487L34.1016 71.1617L34.1445 71.1681C34.1775 71.174 34.1987 71.1805 34.2081 71.1899L34.4498 71.5252L34.7251 71.9287L34.8227 72.0645L34.9086 72.2004L35.0068 72.3422L35.0992 72.4904L35.2156 72.6668L35.2162 72.6674ZM38.9001 72.6957L38.8889 72.7021H38.6789C38.6489 72.6651 38.6101 72.6233 38.5601 72.5739C38.213 72.2481 37.8348 72.0016 37.4237 71.8363C37.2061 71.7504 37.0108 71.7075 36.8408 71.7075C36.7414 71.7075 36.6555 71.7216 36.5826 71.7475C36.5085 71.7728 36.4432 71.8181 36.3867 71.8846C36.2726 71.9775 36.2167 72.1104 36.2167 72.2792L36.2385 72.371C36.2514 72.4086 36.2808 72.4522 36.322 72.5039L36.4073 72.6386L36.4432 72.7016H37.0467V73.1068H36.5361V76.5354L36.0879 76.2089V73.1068H35.7262V72.7016H36.1597L36.0879 72.6092L35.9891 72.4457L35.8962 72.261L35.8679 72.091C35.8679 71.9446 35.8873 71.8216 35.9279 71.7252C35.9697 71.6281 36.0385 71.5428 36.1379 71.4669C36.2279 71.4087 36.3155 71.3693 36.4002 71.3458C36.5091 71.3175 36.6202 71.3028 36.7343 71.3028C36.8626 71.3028 37.0131 71.3317 37.1884 71.3887C37.349 71.4405 37.5907 71.5652 37.9137 71.764C37.9884 71.8122 38.066 71.8663 38.1472 71.9287L38.5883 72.2686L38.7724 72.4398L38.9001 72.568V72.6957ZM40.0006 73.0721H39.9659V73.1074H39.4182V76.536L38.9859 76.2025V73.1074H38.1972V74.762C38.1972 74.8043 38.1901 74.8379 38.1754 74.8614L38.1325 74.9243L38.0548 74.9743L37.9689 74.9949C37.9225 74.9949 37.8537 74.969 37.7637 74.9173L37.4866 74.6832C37.2731 74.4508 37.1672 74.2755 37.1672 74.1579C37.1672 74.0773 37.2214 74.0362 37.3296 74.0362L37.749 74.0291V73.1074H36.9461V72.7021H39.9994V73.0715L40.0006 73.0721ZM43.5209 73.0721H43.4862V73.1074H41.9534V74.1438L42.1233 74.0444C42.1939 74.002 42.2633 73.9703 42.3292 73.9515L42.521 73.9162C42.6433 73.9162 42.7486 73.942 42.8327 73.9944C43.0274 74.0797 43.1691 74.2567 43.2591 74.5273C43.2927 74.6408 43.3091 74.759 43.3091 74.8826C43.3091 75.0902 43.2797 75.2684 43.2233 75.4143C43.2003 75.4666 43.1686 75.5355 43.1309 75.6196C42.9974 75.9101 42.8486 76.0889 42.6833 76.1607L42.3351 75.7919C42.4104 75.7919 42.4715 75.769 42.5168 75.7231C42.5615 75.6784 42.6292 75.5902 42.7192 75.4572C42.7986 75.339 42.8674 75.2037 42.9244 75.052C42.9768 74.9155 43.0033 74.7873 43.0033 74.669L42.9809 74.5338C42.9433 74.4344 42.8939 74.3749 42.8286 74.3532C42.7639 74.3314 42.7045 74.322 42.6468 74.322C42.5951 74.322 42.5298 74.3344 42.4486 74.3602C42.3686 74.3861 42.281 74.4373 42.1863 74.5138L42.0798 74.5985L41.9522 74.6979V76.5371L41.5046 76.2107V75.0525L41.4128 75.1096L41.3052 75.1596L41.0358 75.2731L40.8364 75.3013C40.7329 75.3013 40.617 75.2731 40.4888 75.2167C40.2994 75.1325 40.1435 74.9649 40.0206 74.7143C39.9829 74.6008 39.9641 74.4861 39.9641 74.3679C39.9641 74.1991 40.0135 74.052 40.1123 73.9303C40.1505 73.8826 40.1917 73.8409 40.2335 73.8026C40.3946 73.6962 40.5399 73.6285 40.6676 73.6056C40.7334 73.5909 40.7923 73.5862 40.8446 73.5909H40.9593L41.1005 73.6127L41.3058 74.0591H41.164L41.0569 74.0373H40.9793C40.8605 74.0373 40.7717 74.0497 40.7099 74.0738C40.624 74.0826 40.5229 74.1273 40.4046 74.2079C40.3764 74.2273 40.3482 74.2579 40.3199 74.3008C40.2917 74.3761 40.2764 74.4444 40.2764 74.5055C40.2764 74.672 40.3305 74.7826 40.4393 74.839L40.5676 74.8826L40.7376 74.8967C40.7717 74.9014 40.8399 74.8867 40.944 74.8537C41.0011 74.8349 41.1169 74.7832 41.2928 74.6973C41.2928 74.6973 41.3128 74.6843 41.3569 74.6549L41.5051 74.5555V73.108H39.8017V72.7027H43.5215V73.0721H43.5209ZM44.7149 73.0721H44.6802V73.1074H44.2044V76.536L43.7573 76.2095V73.1074H43.3956V72.7021H43.8785C43.8691 72.6498 43.8473 72.581 43.8156 72.4963C43.782 72.4116 43.7109 72.2851 43.6015 72.1198C43.3744 71.7752 43.1391 71.6022 42.8986 71.6022C42.8421 71.6022 42.7827 71.6146 42.7209 71.6369C42.6309 71.6934 42.5645 71.7799 42.5227 71.8934C42.5033 71.9487 42.4886 72.0304 42.4804 72.1345L42.5009 72.3192L42.558 72.4892C42.5727 72.5227 42.6056 72.568 42.6574 72.6245C42.6786 72.648 42.7074 72.6745 42.7468 72.7033H42.4598C42.4533 72.698 42.448 72.6933 42.4451 72.688L42.3027 72.4963C42.2321 72.4004 42.1774 72.3016 42.1398 72.2004C42.1016 72.0963 42.0822 72.004 42.0822 71.9181C42.0822 71.8222 42.0998 71.7304 42.1327 71.6393C42.1557 71.5769 42.2004 71.5022 42.2669 71.4122C42.3286 71.3458 42.4045 71.2911 42.4945 71.254C42.5845 71.2164 42.6762 71.1975 42.7709 71.1975C43.1156 71.1975 43.4426 71.4375 43.7503 71.9187C43.8256 72.0369 43.9238 72.2034 44.042 72.4204C44.0985 72.5239 44.132 72.6174 44.1414 72.7033H44.7155V73.0727L44.7149 73.0721ZM50.7421 73.0721H50.7074V73.1074H50.2315V76.536L49.7845 76.2095V74.5979L49.571 74.7049C49.4769 74.7326 49.3804 74.7473 49.2869 74.7473H49.181C49.1004 74.7379 48.9834 74.7002 48.834 74.6332L48.6493 74.4902L48.5499 74.3573C48.5311 74.4132 48.5117 74.4532 48.4923 74.4773L48.3858 74.6626C48.3617 74.6961 48.3105 74.7502 48.2305 74.8249L48.0811 74.9308L48.2923 75.2731L48.534 75.6425L48.8111 76.0401C48.8487 76.0813 48.8958 76.1342 48.9522 76.1936C49.0381 76.2825 49.0916 76.3372 49.1157 76.3619L48.7746 76.5365C48.7611 76.4989 48.6875 76.3819 48.5558 76.1836C48.4934 76.0883 48.4252 75.9842 48.3493 75.8666C48.2964 75.796 48.1988 75.6549 48.0517 75.4425C47.9988 75.3666 47.9464 75.2861 47.8947 75.2014C47.6817 74.8508 47.5541 74.5367 47.5117 74.2567L47.5182 74.1938L47.547 74.1291C47.5553 74.0962 47.5917 74.0697 47.6547 74.0509L48.1652 74.0444V73.1074H47.2206V72.7021H50.7421V73.0715V73.0721ZM49.7839 73.1074H48.5834V74.1856L48.6905 74.2644L48.8322 74.3144L48.9599 74.3491H49.1299C49.244 74.3544 49.3598 74.3308 49.4781 74.2785C49.5681 74.2503 49.6704 74.1867 49.7845 74.0879V73.108L49.7839 73.1074ZM50.5439 71.8575L50.1463 72.2622L49.7192 71.8499L50.1386 71.4316L50.5362 71.8081L50.515 71.8363L50.5433 71.8575H50.5439ZM53.0643 74.5996L52.9584 74.639L52.8137 74.6685H52.7025C52.4478 74.6837 52.2361 74.5885 52.0667 74.3844C52.0526 74.442 52.0332 74.4879 52.0102 74.5202C51.9296 74.6802 51.8332 74.8026 51.7208 74.8873L51.5579 74.9802L51.572 75.0084L51.6938 75.1784L51.8508 75.3919L52.119 75.7331L52.2526 75.8895L52.4514 76.0878C52.489 76.1354 52.5443 76.176 52.6155 76.2089L52.2743 76.4077L52.0402 76.1525L51.8632 75.9248L51.685 75.6772L51.2515 74.9873L51.1238 74.7679L50.975 74.4767L50.9115 74.2426L50.918 74.172L50.9679 74.1079L51.0391 74.0656L51.1097 74.0514L51.6214 74.045V73.108H50.6768V72.7027H52.8137V73.108H52.0843V74.2008L52.289 74.2785L52.5167 74.3073C52.6819 74.3073 52.8278 74.275 52.9549 74.2097C52.9654 74.3161 52.9778 74.4473 53.0637 74.6002L53.0643 74.5996ZM54.7665 73.1074H54.7318H54.5406L54.3553 72.7021H54.7665V73.1074ZM55.0294 75.3119C54.9718 75.3608 54.9082 75.406 54.84 75.4425C54.7594 75.4896 54.6377 75.5296 54.473 75.5637L54.2118 75.5784C54.0565 75.5878 53.8989 75.5402 53.7389 75.4366C53.593 75.3455 53.4525 75.2061 53.316 75.0173C53.2172 74.8755 53.1254 74.7208 53.0419 74.5555C52.979 74.4326 52.949 74.2767 52.949 74.0873L53.2137 74.1079C53.2789 74.1126 53.3713 74.1032 53.4925 74.0797L53.6801 74.0167L53.5242 73.9515C53.4295 73.9132 53.3254 73.8438 53.2125 73.7444C53.0372 73.6215 52.949 73.4568 52.949 73.2515C52.949 73.0774 52.9984 72.9386 53.0984 72.8392C53.1319 72.8051 53.1695 72.7786 53.2125 72.7592L53.3689 72.7168L53.603 72.7027C53.7348 72.6927 53.8554 72.7221 53.9642 72.7886C54.1912 72.8974 54.3453 73.078 54.4265 73.3297C54.4594 73.4433 54.4753 73.5615 54.4753 73.6844C54.4753 73.932 54.3271 74.1491 54.0289 74.3332C53.9254 74.3997 53.8018 74.4561 53.6589 74.5026L53.3542 74.5538C53.3925 74.6632 53.4307 74.7373 53.4683 74.7749C53.5719 74.9449 53.7089 75.0572 53.8789 75.109C53.9542 75.1384 54.0401 75.1525 54.1342 75.1525C54.3283 75.1525 54.5294 75.0855 54.7377 74.9537L54.9723 74.8043C54.9947 74.789 55.0129 74.7749 55.0288 74.7602V75.3125L55.0294 75.3119ZM54.0718 73.4838C54.0718 73.3986 54.0595 73.3297 54.0354 73.278C54.0165 73.2062 53.9877 73.1545 53.9495 73.1215C53.8771 73.0315 53.7795 72.9874 53.6554 72.9874C53.6172 72.9874 53.5807 72.9933 53.543 73.0045C53.5083 73.0168 53.4807 73.0362 53.4613 73.065L53.4031 73.1498V73.2633C53.3995 73.3668 53.4313 73.4762 53.503 73.5897C53.536 73.6462 53.5901 73.7174 53.6666 73.8032C53.7177 73.8591 53.7919 73.8932 53.8871 73.902L53.9642 73.8244L54.0283 73.7321L54.0565 73.6262L54.0712 73.4844L54.0718 73.4838ZM56.0587 73.0721H56.024V73.1074H55.477V76.536L55.0294 76.2095V73.1074H54.7677V72.7021H56.0587V73.0715V73.0721ZM57.2804 73.0721H57.2439V73.1074H56.6993V76.536L56.2517 76.2095V73.1074H55.8182V72.7021H57.281V73.0715L57.2804 73.0721ZM60.2619 73.0721H60.2255V73.1074H59.6796V76.536L59.2461 76.2025V74.3779H58.2456V75.0661C58.2456 75.1572 58.2015 75.2014 58.1168 75.2014L58.0598 75.1949C58.0356 75.1802 58.0162 75.1655 58.0033 75.1525L57.7474 74.829L57.591 74.6226L57.5069 74.4885L57.3139 74.2008L57.3222 74.1303C57.3222 74.0579 57.3604 74.0038 57.4357 73.9656C57.4451 73.9615 57.4598 73.9591 57.4786 73.9591H59.2461V73.1074H57.1092V72.7021H60.2614V73.0715L60.2619 73.0721ZM66.4597 73.0721H66.4244V73.1074H64.891V74.1438L65.061 74.0444C65.1322 74.002 65.201 73.9703 65.268 73.9515L65.458 73.9162C65.5827 73.9162 65.6868 73.942 65.7715 73.9944C65.965 74.0797 66.1074 74.2567 66.1974 74.5273C66.2303 74.6408 66.2474 74.759 66.2474 74.8826C66.2474 75.0902 66.218 75.2684 66.1603 75.4143C66.1374 75.4666 66.1074 75.5355 66.0691 75.6196C65.9362 75.9101 65.788 76.0889 65.6221 76.1607L65.2739 75.7919C65.3492 75.7919 65.4098 75.769 65.4545 75.7231C65.4992 75.6784 65.5662 75.5902 65.6562 75.4572C65.7374 75.339 65.8068 75.2037 65.8627 75.052C65.9156 74.9155 65.9421 74.7873 65.9421 74.669L65.9197 74.5338C65.8821 74.4344 65.8315 74.3749 65.7674 74.3532C65.7039 74.3314 65.6433 74.322 65.5868 74.322C65.5345 74.322 65.4686 74.3344 65.388 74.3602C65.3069 74.3861 65.2198 74.4373 65.1245 74.5138L65.018 74.5985L64.8904 74.6979V76.5371L64.4428 76.2107V75.0525L64.3505 75.1096L64.2446 75.1596L63.974 75.2731L63.7758 75.3013C63.6723 75.3013 63.5552 75.2731 63.4276 75.2167C63.2382 75.1325 63.0823 74.9649 62.96 74.7143C62.9217 74.6008 62.9023 74.4861 62.9023 74.3679C62.9023 74.1991 62.9517 74.052 63.0506 73.9303C63.0888 73.8826 63.1294 73.8409 63.1717 73.8026C63.3329 73.6962 63.477 73.6285 63.6058 73.6056C63.6717 73.5909 63.7299 73.5862 63.7834 73.5909H63.8958L64.0387 73.6127L64.2446 74.0591H64.1022L63.9958 74.0373H63.9181C63.7999 74.0373 63.7099 74.0497 63.6481 74.0738C63.564 74.0826 63.4617 74.1273 63.3429 74.2079C63.3146 74.2273 63.2864 74.2579 63.257 74.3008C63.2288 74.3761 63.2158 74.4444 63.2158 74.5055C63.2158 74.672 63.2688 74.7826 63.3776 74.839L63.5064 74.8826L63.677 74.8967C63.7105 74.9014 63.7787 74.8867 63.8822 74.8537C63.9393 74.8349 64.0552 74.7832 64.2305 74.6973C64.2305 74.6973 64.2522 74.6843 64.2952 74.6549L64.444 74.5555V73.108H62.7406V72.7027H66.4603V73.0721H66.4597ZM67.7237 73.0721H67.6873V73.1074H67.1414V76.536L66.695 76.2095V73.1074H66.2621V72.7021H67.7243V73.0715L67.7237 73.0721ZM70.7058 73.0721H70.6694V73.1074H70.1235V76.536L69.69 76.2025V74.3779H68.6889V75.0661C68.6889 75.1572 68.6466 75.2014 68.5613 75.2014L68.5048 75.1949C68.4807 75.1802 68.4619 75.1655 68.4484 75.1525L68.1925 74.829L68.036 74.6226L67.9519 74.4885L67.759 74.2008L67.7655 74.1303C67.7655 74.0579 67.8037 74.0038 67.8796 73.9656C67.8896 73.9615 67.9043 73.9591 67.9231 73.9591H69.6895V73.1074H67.5526V72.7021H70.7058V73.0715V73.0721ZM73.4103 73.0721H73.3739V73.1074H72.878L72.8792 76.2977L72.4522 76.2448V75.2014L72.4239 75.2225L72.2669 75.2937L72.0828 75.3437L71.8905 75.3578C71.8287 75.3625 71.7458 75.3243 71.6417 75.2443C71.5187 75.1543 71.394 75.0331 71.2658 74.8826L70.9817 74.5414C70.9252 74.4514 70.8923 74.3873 70.8823 74.3491V73.1074H70.577V72.7021H73.4103V73.0715V73.0721ZM72.4516 74.7049V73.1074H71.3293V74.5414C71.3393 74.5838 71.3676 74.629 71.414 74.6755L71.5634 74.8249L71.6993 74.9243L71.8269 74.9537C71.911 74.9537 72.004 74.9326 72.1034 74.8896L72.2381 74.8326C72.2945 74.8149 72.3463 74.7855 72.394 74.7479L72.4516 74.7055V74.7049ZM73.4403 77.1324C73.4403 77.4259 73.3262 77.6653 73.0986 77.8494C72.8721 78.0341 72.6039 78.127 72.2969 78.127C72.131 78.127 71.9557 78.077 71.7675 77.9788C71.5799 77.8788 71.3858 77.7365 71.1817 77.5518C71.0258 77.41 70.8952 77.2794 70.7917 77.1612C70.7058 77.0665 70.6458 76.9842 70.6141 76.913L70.897 76.6077C70.897 76.8348 71.0723 77.1 71.4228 77.4024C71.5317 77.4971 71.6593 77.5753 71.8052 77.6371C71.9381 77.6935 72.0699 77.7223 72.2028 77.7223C72.3269 77.7223 72.4304 77.7059 72.5157 77.6729C72.6475 77.6212 72.7522 77.5659 72.828 77.5094C72.9221 77.4388 72.9927 77.3583 73.0404 77.2683C73.088 77.1783 73.111 77.0953 73.111 77.0195L73.0898 76.8271C73.0757 76.7754 73.0515 76.7354 73.0192 76.7071L72.9051 76.6283C72.8716 76.6195 72.818 76.6142 72.7422 76.6142C72.6286 76.6142 72.5169 76.6783 72.4081 76.8065L72.2951 76.9406L72.2528 77.0977L71.8616 76.813L71.961 76.6283L72.0316 76.5083C72.1034 76.4283 72.181 76.363 72.2669 76.3136C72.3251 76.2801 72.3863 76.2572 72.4504 76.246L72.8774 76.2989C72.9968 76.346 73.1086 76.4183 73.1974 76.5013C73.2298 76.5389 73.2892 76.6371 73.375 76.7918C73.4168 76.9012 73.4392 77.0147 73.4392 77.133L73.4403 77.1324ZM76.029 73.0721H75.9943V73.1074H75.0143L75.0649 73.3621L75.0926 73.6309C75.0926 74.1085 74.9061 74.5526 74.532 74.9643C74.5797 75.0825 74.645 75.1984 74.7261 75.3114L74.9855 75.6837L75.2978 76.0319C75.3631 76.1072 75.4867 76.2048 75.6672 76.323L75.312 76.5295L75.0702 76.2378L74.8714 75.9678L74.645 75.6407L74.475 75.3861L74.1485 74.889L73.9915 74.612L73.8921 74.4061L73.8574 74.215C73.8574 74.1061 73.9138 74.0514 74.0274 74.0514L74.5961 74.045V73.108H73.3033V72.7027H76.0295V73.0721H76.029Z" fill="#F58634"/>
</svg>
